<svg xmlns="http://www.w3.org/2000/svg" width="200" height="200" viewBox="0 0 200 200">
  <path d="M126.46,146.66 L174.8,170.92 A6.5,6.5 0 0 0 180.63,159.3 L132.29,135.04 A6.5,6.5 0 0 0 126.46,146.66 Z" fill="#EDB838" stroke="#3B2A1E" stroke-width="3.5" stroke-linecap="round" stroke-linejoin="round"/>
  <path d="M43.76,137.64 L84.4,172.35 A6.5,6.5 0 0 0 92.84,162.46 L52.2,127.76 A6.5,6.5 0 0 0 43.76,137.64 Z" fill="#F4C542" stroke="#3B2A1E" stroke-width="3.5" stroke-linecap="round" stroke-linejoin="round"/>
  <path d="M83.02,151.19 L138.23,142.59 A6.5,6.5 0 0 0 136.23,129.75 L81.02,138.34 A6.5,6.5 0 0 0 83.02,151.19 Z" fill="#EDB838" stroke="#3B2A1E" stroke-width="3.5" stroke-linecap="round" stroke-linejoin="round"/>
  <path d="M27.13,129.43 L58.94,161.25 A6.5,6.5 0 0 0 68.13,152.05 L36.32,120.24 A6.5,6.5 0 0 0 27.13,129.43 Z" fill="#F4C542" stroke="#3B2A1E" stroke-width="3.5" stroke-linecap="round" stroke-linejoin="round"/>
  <path d="M41.14,129.53 L73.44,157.47 A6.5,6.5 0 0 0 81.95,147.64 L49.64,119.7 A6.5,6.5 0 0 0 41.14,129.53 Z" fill="#EDB838" stroke="#3B2A1E" stroke-width="3.5" stroke-linecap="round" stroke-linejoin="round"/>
  <path d="M67.37,135.38 L106.85,158.69 A6.5,6.5 0 0 0 113.46,147.49 L73.98,124.19 A6.5,6.5 0 0 0 67.37,135.38 Z" fill="#F4C542" stroke="#3B2A1E" stroke-width="3.5" stroke-linecap="round" stroke-linejoin="round"/>
  <path d="M36.42,156.66 L62.51,129.18 A6.5,6.5 0 0 0 53.08,120.23 L27,147.71 A6.5,6.5 0 0 0 36.42,156.66 Z" fill="#EDB838" stroke="#3B2A1E" stroke-width="3.5" stroke-linecap="round" stroke-linejoin="round"/>
  <path d="M38.38,153.48 L84.67,135.1 A6.5,6.5 0 0 0 79.87,123.02 L33.58,141.39 A6.5,6.5 0 0 0 38.38,153.48 Z" fill="#F4C542" stroke="#3B2A1E" stroke-width="3.5" stroke-linecap="round" stroke-linejoin="round"/>
  <path d="M43.49,149.81 L77.24,112.77 A6.5,6.5 0 0 0 67.63,104.01 L33.88,141.06 A6.5,6.5 0 0 0 43.49,149.81 Z" fill="#EDB838" stroke="#3B2A1E" stroke-width="3.5" stroke-linecap="round" stroke-linejoin="round"/>
  <path d="M134.02,140.27 L166.54,124.24 A6.5,6.5 0 0 0 160.79,112.58 L128.27,128.61 A6.5,6.5 0 0 0 134.02,140.27 Z" fill="#F4C542" stroke="#3B2A1E" stroke-width="3.5" stroke-linecap="round" stroke-linejoin="round"/>
  <path d="M103.25,145.33 L142.69,116.35 A6.5,6.5 0 0 0 134.99,105.87 L95.56,134.85 A6.5,6.5 0 0 0 103.25,145.33 Z" fill="#EDB838" stroke="#3B2A1E" stroke-width="3.5" stroke-linecap="round" stroke-linejoin="round"/>
  <path d="M96.82,145.05 L136.91,117.29 A6.5,6.5 0 0 0 129.51,106.6 L89.41,134.36 A6.5,6.5 0 0 0 96.82,145.05 Z" fill="#F4C542" stroke="#3B2A1E" stroke-width="3.5" stroke-linecap="round" stroke-linejoin="round"/>
  <path d="M88.19,143.96 L133.69,113.82 A6.5,6.5 0 0 0 126.51,102.98 L81.01,133.13 A6.5,6.5 0 0 0 88.19,143.96 Z" fill="#EDB838" stroke="#3B2A1E" stroke-width="3.5" stroke-linecap="round" stroke-linejoin="round"/>
  <path d="M127.56,111.55 L158.42,147.8 A6.5,6.5 0 0 0 168.32,139.38 L137.46,103.12 A6.5,6.5 0 0 0 127.56,111.55 Z" fill="#F4C542" stroke="#3B2A1E" stroke-width="3.5" stroke-linecap="round" stroke-linejoin="round"/>
  <path d="M55.51,116.22 L101.08,124.88 A6.5,6.5 0 0 0 103.51,112.11 L57.94,103.45 A6.5,6.5 0 0 0 55.51,116.22 Z" fill="#EDB838" stroke="#3B2A1E" stroke-width="3.5" stroke-linecap="round" stroke-linejoin="round"/>
  <path d="M72.1,120.76 L103.86,142.15 A6.5,6.5 0 0 0 111.12,131.37 L79.36,109.98 A6.5,6.5 0 0 0 72.1,120.76 Z" fill="#F4C542" stroke="#3B2A1E" stroke-width="3.5" stroke-linecap="round" stroke-linejoin="round"/>
  <path d="M128.6,108.84 L169.44,119.89 A6.5,6.5 0 0 0 172.83,107.35 L132,96.29 A6.5,6.5 0 0 0 128.6,108.84 Z" fill="#EDB838" stroke="#3B2A1E" stroke-width="3.5" stroke-linecap="round" stroke-linejoin="round"/>
  <path d="M98.88,126.31 L150.07,129.03 A6.5,6.5 0 0 0 150.75,116.05 L99.57,113.33 A6.5,6.5 0 0 0 98.88,126.31 Z" fill="#F4C542" stroke="#3B2A1E" stroke-width="3.5" stroke-linecap="round" stroke-linejoin="round"/>
  <path d="M38.18,133.56 L73.61,105.64 A6.5,6.5 0 0 0 65.56,95.43 L30.14,123.35 A6.5,6.5 0 0 0 38.18,133.56 Z" fill="#EDB838" stroke="#3B2A1E" stroke-width="3.5" stroke-linecap="round" stroke-linejoin="round"/>
  <path d="M62.11,100.85 L96.5,116.69 A6.5,6.5 0 0 0 101.94,104.88 L67.54,89.04 A6.5,6.5 0 0 0 62.11,100.85 Z" fill="#F4C542" stroke="#3B2A1E" stroke-width="3.5" stroke-linecap="round" stroke-linejoin="round"/>
  <path d="M51.8,101.32 L92.15,113.06 A6.5,6.5 0 0 0 95.78,100.58 L55.43,88.84 A6.5,6.5 0 0 0 51.8,101.32 Z" fill="#EDB838" stroke="#3B2A1E" stroke-width="3.5" stroke-linecap="round" stroke-linejoin="round"/>
  <path d="M33.48,114.47 L74.2,92.78 A6.5,6.5 0 0 0 68.09,81.31 L27.37,102.99 A6.5,6.5 0 0 0 33.48,114.47 Z" fill="#F4C542" stroke="#3B2A1E" stroke-width="3.5" stroke-linecap="round" stroke-linejoin="round"/>
  <path d="M23.15,95.27 L67.75,108.61 A6.5,6.5 0 0 0 71.47,96.16 L26.88,82.82 A6.5,6.5 0 0 0 23.15,95.27 Z" fill="#EDB838" stroke="#3B2A1E" stroke-width="3.5" stroke-linecap="round" stroke-linejoin="round"/>
  <path d="M48.06,115.97 L81.03,90.77 A6.5,6.5 0 0 0 73.13,80.44 L40.16,105.64 A6.5,6.5 0 0 0 48.06,115.97 Z" fill="#F4C542" stroke="#3B2A1E" stroke-width="3.5" stroke-linecap="round" stroke-linejoin="round"/>
  <path d="M73.68,110.4 L108.69,89.99 A6.5,6.5 0 0 0 102.14,78.76 L67.13,99.17 A6.5,6.5 0 0 0 73.68,110.4 Z" fill="#EDB838" stroke="#3B2A1E" stroke-width="3.5" stroke-linecap="round" stroke-linejoin="round"/>
  <path d="M55.37,87.65 L93.62,118.21 A6.5,6.5 0 0 0 101.74,108.05 L63.48,77.49 A6.5,6.5 0 0 0 55.37,87.65 Z" fill="#F4C542" stroke="#3B2A1E" stroke-width="3.5" stroke-linecap="round" stroke-linejoin="round"/>
  <path d="M76.97,105.05 L118.64,79.87 A6.5,6.5 0 0 0 111.91,68.75 L70.24,93.93 A6.5,6.5 0 0 0 76.97,105.05 Z" fill="#EDB838" stroke="#3B2A1E" stroke-width="3.5" stroke-linecap="round" stroke-linejoin="round"/>
  <path d="M69.64,89.47 L101.34,116.92 A6.5,6.5 0 0 0 109.85,107.09 L78.15,79.64 A6.5,6.5 0 0 0 69.64,89.47 Z" fill="#F4C542" stroke="#3B2A1E" stroke-width="3.5" stroke-linecap="round" stroke-linejoin="round"/>
  <path d="M65.3,87.82 L101.49,99.33 A6.5,6.5 0 0 0 105.43,86.94 L69.24,75.43 A6.5,6.5 0 0 0 65.3,87.82 Z" fill="#EDB838" stroke="#3B2A1E" stroke-width="3.5" stroke-linecap="round" stroke-linejoin="round"/>
  <path d="M50.23,106.96 L104.28,94.8 A6.5,6.5 0 0 0 101.43,82.12 L47.38,94.28 A6.5,6.5 0 0 0 50.23,106.96 Z" fill="#F4C542" stroke="#3B2A1E" stroke-width="3.5" stroke-linecap="round" stroke-linejoin="round"/>
  <path d="M70.23,99.48 L108.14,97 A6.5,6.5 0 0 0 107.29,84.03 L69.38,86.51 A6.5,6.5 0 0 0 70.23,99.48 Z" fill="#EDB838" stroke="#3B2A1E" stroke-width="3.5" stroke-linecap="round" stroke-linejoin="round"/>
  <path d="M85.41,67.8 L122.7,101.14 A6.5,6.5 0 0 0 131.36,91.44 L94.07,58.11 A6.5,6.5 0 0 0 85.41,67.8 Z" fill="#F4C542" stroke="#3B2A1E" stroke-width="3.5" stroke-linecap="round" stroke-linejoin="round"/>
  <path d="M75.05,93.09 L130.2,97.63 A6.5,6.5 0 0 0 131.27,84.67 L76.12,80.13 A6.5,6.5 0 0 0 75.05,93.09 Z" fill="#EDB838" stroke="#3B2A1E" stroke-width="3.5" stroke-linecap="round" stroke-linejoin="round"/>
  <path d="M100.72,90.26 L150.26,71.64 A6.5,6.5 0 0 0 145.68,59.47 L96.15,78.09 A6.5,6.5 0 0 0 100.72,90.26 Z" fill="#F4C542" stroke="#3B2A1E" stroke-width="3.5" stroke-linecap="round" stroke-linejoin="round"/>
  <path d="M58,98 C60.67,93.33 69,84.33 76,80 C83,75.67 92,72 100,72 C108,72 116.67,75.67 124,80 C131.33,84.33 141.33,93.33 144,98 C146.67,102.67 141.67,102.67 140,108 C138.33,113.33 136.67,129.67 134,130 C131.33,130.33 128.33,112.33 124,110 C119.67,107.67 112,111 108,116 C104,121 103,140.33 100,140 C97,139.67 94.33,118.67 90,114 C85.67,109.33 78,110 74,112 C70,114 68.33,126.67 66,126 C63.67,125.33 61.33,112.67 60,108 C58.67,103.33 55.33,102.67 58,98 Z" fill="#7A4A26" stroke="#3B2A1E" stroke-width="4" stroke-linecap="round" stroke-linejoin="round"/>
  <path d="M76.0,88 Q86,82 96.0,88" fill="none" stroke="#A8703F" stroke-width="3" stroke-linecap="round" stroke-linejoin="round"/>
  <path d="M110.0,88 Q118,82 126.0,88" fill="none" stroke="#A8703F" stroke-width="3" stroke-linecap="round" stroke-linejoin="round"/>
  <path d="M58.93,131 C58.97,133 58.56,136.21 56.66,137.19 C54.76,138.18 49.68,137.93 47.54,136.9 C45.39,135.87 43.8,132.96 43.81,131 C43.81,129.04 45.47,126.12 47.56,125.15 C49.66,124.18 54.48,124.21 56.38,125.19 C58.27,126.17 58.88,129 58.93,131 Z" fill="#FFF6E0" stroke="#3B2A1E" stroke-width="3" stroke-linecap="round" stroke-linejoin="round"/>
  <path d="M90.14,93.28 C90.21,95.18 89.66,98.18 87.68,99.26 C85.7,100.34 80.37,100.76 78.27,99.77 C76.17,98.77 75.08,95.43 75.09,93.28 C75.09,91.13 76.28,87.74 78.31,86.84 C80.33,85.94 85.27,86.81 87.24,87.88 C89.21,88.95 90.06,91.38 90.14,93.28 Z" fill="#FFF6E0" stroke="#3B2A1E" stroke-width="3" stroke-linecap="round" stroke-linejoin="round"/>
  <path d="M80.47,121.24 C80.42,122.88 76.55,124.87 74.08,125.95 C71.61,127.02 67.55,128.49 65.64,127.7 C63.74,126.92 62.61,123.36 62.64,121.24 C62.67,119.12 63.84,115.85 65.81,114.99 C67.77,114.13 71.98,115.03 74.42,116.07 C76.87,117.11 80.53,119.59 80.47,121.24 Z" fill="#FFF6E0" stroke="#3B2A1E" stroke-width="3" stroke-linecap="round" stroke-linejoin="round"/>
  <path d="M166.33,96.18 C166.34,97.71 164.17,100 162.32,100.8 C160.46,101.6 156.97,101.76 155.2,100.99 C153.43,100.22 151.91,98.04 151.72,96.18 C151.52,94.32 152.28,90.59 154.03,89.83 C155.79,89.07 160.21,90.57 162.26,91.63 C164.31,92.69 166.32,94.65 166.33,96.18 Z" fill="#FFF6E0" stroke="#3B2A1E" stroke-width="3" stroke-linecap="round" stroke-linejoin="round"/>
  <path d="M61.44,90.94 C61.61,92.78 60.65,96.43 58.87,97.19 C57.09,97.94 53.05,96.5 50.74,95.45 C48.44,94.41 45.13,92.57 45.04,90.94 C44.94,89.3 48.03,86.45 50.16,85.65 C52.29,84.84 55.92,85.22 57.8,86.1 C59.68,86.98 61.26,89.09 61.44,90.94 Z" fill="#FFF6E0" stroke="#3B2A1E" stroke-width="3" stroke-linecap="round" stroke-linejoin="round"/>
  <path d="M75.21,106.43 C75.24,108.18 73.58,110.91 71.63,111.81 C69.68,112.71 65.62,112.7 63.51,111.8 C61.39,110.91 59.03,108.34 58.94,106.43 C58.85,104.52 60.89,101.2 62.97,100.34 C65.06,99.48 69.42,100.26 71.46,101.27 C73.5,102.28 75.18,104.67 75.21,106.43 Z" fill="#FFF6E0" stroke="#3B2A1E" stroke-width="3" stroke-linecap="round" stroke-linejoin="round"/>
  <path d="M120.9,116.61 C121.08,118.44 119.68,122.05 117.79,122.83 C115.9,123.61 111.74,122.33 109.55,121.3 C107.35,120.26 104.69,118.27 104.61,116.61 C104.54,114.94 107.07,112.11 109.09,111.31 C111.11,110.51 114.73,110.94 116.7,111.82 C118.67,112.7 120.72,114.77 120.9,116.61 Z" fill="#FFF6E0" stroke="#3B2A1E" stroke-width="3" stroke-linecap="round" stroke-linejoin="round"/>
  <path d="M127.55,124 C127.49,125.84 125.34,128.21 123.1,129.3 C120.87,130.39 116.53,131.42 114.17,130.54 C111.8,129.66 108.86,126.08 108.93,124 C109.01,121.92 112.21,119.04 114.63,118.08 C117.06,117.12 121.3,117.25 123.46,118.23 C125.61,119.22 127.61,122.15 127.55,124 Z" fill="#FFF6E0" stroke="#3B2A1E" stroke-width="3" stroke-linecap="round" stroke-linejoin="round"/>
  <path d="M125.81,115.97 C125.82,117.87 123.31,120.65 121.01,121.69 C118.71,122.72 114.29,123.12 112.01,122.17 C109.74,121.21 107.32,117.99 107.35,115.97 C107.38,113.94 109.92,110.96 112.19,110.01 C114.47,109.06 118.72,109.28 120.99,110.27 C123.26,111.27 125.81,114.07 125.81,115.97 Z" fill="#FFF6E0" stroke="#3B2A1E" stroke-width="3" stroke-linecap="round" stroke-linejoin="round"/>
  <path d="M22,150 L178,150 L168,184 Q166,190 158,190 L42,190 Q34,190 32,184 Z" fill="#C89B63" stroke="#3B2A1E" stroke-width="6" stroke-linecap="round" stroke-linejoin="round"/>
  <path d="M89.93,167.24 A2.47,3.04 0 1 0 94.87,167.24 A2.47,3.04 0 1 0 89.93,167.24 Z" fill="#3B2A1E"/>
  <path d="M92.32,166.1 A0.84,0.84 0 1 0 94,166.1 A0.84,0.84 0 1 0 92.32,166.1 Z" fill="#FFFFFF"/>
  <path d="M105.13,167.24 A2.47,3.04 0 1 0 110.07,167.24 A2.47,3.04 0 1 0 105.13,167.24 Z" fill="#3B2A1E"/>
  <path d="M107.52,166.1 A0.84,0.84 0 1 0 109.2,166.1 A0.84,0.84 0 1 0 107.52,166.1 Z" fill="#FFFFFF"/>
  <path d="M83.66,173.32 A2.66,1.52 0 1 0 88.98,173.32 A2.66,1.52 0 1 0 83.66,173.32 Z" fill="#E8866F"/>
  <path d="M111.02,173.32 A2.66,1.52 0 1 0 116.34,173.32 A2.66,1.52 0 1 0 111.02,173.32 Z" fill="#E8866F"/>
  <path d="M95.44,173.32 Q100,178.64 104.56,173.32" fill="none" stroke="#3B2A1E" stroke-width="1.71" stroke-linecap="round" stroke-linejoin="round"/>
</svg>
